<svg width="16" height="16" xmlns="http://www.w3.org/2000/svg" class="bi bi-bullseye">

 <g>
  <title>background</title>
  <rect fill="none" id="canvas_background" height="402" width="582" y="-1" x="-1"/>
 </g>
 <g>
  <title>Layer 1</title>
  <path fill="#ff4c68" id="svg_1" d="m8,15a7,7 0 1 1 0,-14a7,7 0 0 1 0,14zm0,1a8,8 0 1 0 0,-16a8,8 0 0 0 0,16z"/>
  <path fill="#ff4c68" id="svg_2" d="m8,13a5,5 0 1 1 0,-10a5,5 0 0 1 0,10zm0,1a6,6 0 1 0 0,-12a6,6 0 0 0 0,12z"/>
  <path fill="#ff4c68" id="svg_3" d="m8.024038,11a3,3 0 1 1 0,-6a3,3 0 0 1 0,6zm0,1a4,4 0 1 0 0,-8a4,4 0 0 0 0,8z"/>
  <path fill="#ff4c68" id="svg_4" d="m9.5,8a1.5,1.5 0 1 1 -3,0a1.5,1.5 0 0 1 3,0z"/>
 </g>
</svg>