<svg width="512" height="512" xmlns="http://www.w3.org/2000/svg">
 <!-- Font Awesome Free 5.15.3 by @fontawesome - https://fontawesome.com License - https://fontawesome.com/license/free (Icons: CC BY 4.0, Fonts: SIL OFL 1.1, Code: MIT License) -->

 <g>
  <title>background</title>
  <rect fill="none" id="canvas_background" height="402" width="582" y="-1" x="-1"/>
 </g>
 <g>
  <title>Layer 1</title>
  <path fill="#ff4c68" id="svg_1" d="m504,256c0,136.967 -111.033,248 -248,248s-248,-111.033 -248,-248s111.033,-248 248,-248s248,111.033 248,248zm-276.686,131.314l184,-184c6.248,-6.248 6.248,-16.379 0,-22.627l-22.627,-22.627c-6.248,-6.249 -16.379,-6.249 -22.628,0l-150.059,150.058l-70.059,-70.059c-6.248,-6.248 -16.379,-6.248 -22.628,0l-22.627,22.627c-6.248,6.248 -6.248,16.379 0,22.627l104,104c6.249,6.249 16.379,6.249 22.628,0.001z"/>
 </g>
</svg>